<svg width="27" height="27" viewBox="0 0 27 27" fill="none" xmlns="http://www.w3.org/2000/svg">
<path fill-rule="evenodd" clip-rule="evenodd" d="M0.710938 13.5C0.710938 6.3203 6.53124 0.5 13.7109 0.5C20.8906 0.5 26.7109 6.3203 26.7109 13.5C26.7109 20.6797 20.8906 26.5 13.7109 26.5C6.53124 26.5 0.710938 20.6797 0.710938 13.5ZM13.6922 10.0449C14.7485 10.0449 15.461 10.5018 15.8673 10.8836L17.4548 9.33133C16.4798 8.42374 15.211 7.86667 13.6922 7.86667C11.4921 7.86667 9.59203 9.13104 8.667 10.9713C8.28573 11.7349 8.06697 12.5924 8.06697 13.5C8.06697 14.4076 8.28573 15.2651 8.667 16.0287L10.492 14.6142L8.67325 16.0287C9.59828 17.869 11.4921 19.1333 13.6922 19.1333C15.211 19.1333 16.486 18.6326 17.4173 17.7688C18.4799 16.7861 19.0924 15.3402 19.0924 13.6252C19.0924 13.162 19.0549 12.824 18.9736 12.4735H13.6922V14.5641H16.7923C16.7298 15.0836 16.3923 15.866 15.6422 16.3918C15.1672 16.7235 14.5297 16.9551 13.6922 16.9551C12.2046 16.9551 10.9421 15.9724 10.4921 14.6141C10.3733 14.2636 10.3046 13.8881 10.3046 13.5C10.3046 13.1119 10.3733 12.7364 10.4858 12.3859C10.9421 11.0276 12.2046 10.0449 13.6922 10.0449Z" fill="#161616"/>
</svg>
