<svg width="205" height="45" viewBox="0 0 205 45" fill="none" xmlns="http://www.w3.org/2000/svg">
<path d="M26.7019 3.34465C22.7344 1.81333 19.0453 1.04768 15.565 1.04768C12.0848 1.04768 9.37016 1.81333 7.42122 3.27504C5.47227 4.73675 4.4978 6.75531 4.4978 9.40031C4.4978 12.5325 6.16832 15.0383 9.43977 16.7089C10.9015 17.4745 12.5024 18.101 14.3121 18.7274C16.0523 19.3539 17.862 20.0499 19.6021 20.8156C21.4119 21.5812 23.0128 22.4861 24.4745 23.4606C25.9362 24.435 27.3283 25.7575 28.1636 27.2192C29.2077 29.0986 29.4165 30.6299 29.4165 32.2308C29.4165 34.9454 28.6508 37.2424 27.1195 39.1217C25.5882 41.0011 23.7785 42.3236 21.6207 43.0196C19.4629 43.7157 16.9571 43.9941 14.1033 43.9941C8.74372 43.9941 4.21938 42.6716 0.460693 40.0266L0.80872 39.5394C2.27043 40.6531 4.08017 41.5579 6.37714 42.3236C8.67411 43.0196 10.9711 43.3677 13.3377 43.3677C16.8179 43.3677 19.8806 42.602 22.3167 40.9315C24.9617 39.1217 26.145 36.4767 26.2842 33.8317C26.4235 31.4652 25.0313 29.377 21.6207 27.5673C20.0894 26.8016 18.0708 25.9664 16.3307 25.2703C14.5906 24.5046 12.7808 23.739 11.0407 22.9733C9.23096 22.1381 7.63003 21.3028 6.16832 20.2587C2.89688 18.101 1.22635 15.0383 1.22635 11.0012C1.22635 7.86899 2.27043 5.29359 4.42819 3.27504C6.51635 1.32609 9.71819 0.351624 14.0337 0.351624C18.2796 0.351624 22.6648 1.11728 27.0499 2.57899L26.7019 3.34465Z" fill="white"/>
<path d="M49.602 44.0636H44.1728V1.25639H32.9663V0.629944H60.878V1.25639H49.602V44.0636Z" fill="white"/>
<path d="M94.2883 0.629944C95.1235 1.46521 95.5412 2.50928 95.5412 3.83178C95.5412 4.94547 95.3323 5.98954 94.8451 7.17283L83.221 30.769V44.0636H77.8614V32.1611L64.7756 0.629944H70.2745L82.6642 29.9337L93.9402 7.10323C94.4275 5.98954 94.6363 4.87586 94.6363 3.69257C94.6363 2.50928 94.2883 1.60442 93.6618 0.97797L94.2883 0.629944Z" fill="white"/>
<path d="M126.725 44.0636H102.015V0.629944H107.444V43.3676H126.725V44.0636Z" fill="white"/>
<path d="M133.198 1.18688C138.21 0.838854 142.664 0.699646 146.493 0.699646C157.212 0.699646 162.571 4.24951 162.571 11.4189C162.571 14.4815 161.806 17.1265 160.344 19.5627C158.882 21.9292 156.307 23.5302 152.757 24.2958L165.773 44.1333H159.718L146.98 24.7135H138.627V44.1333H133.268V1.18688H133.198ZM146.493 1.25648C143.987 1.25648 141.342 1.3957 138.558 1.74372V23.9478H148.163C154.288 23.6694 157.351 19.5627 157.351 11.4885C157.351 8.21701 156.446 5.64162 154.636 3.90149C152.827 2.16136 150.112 1.25648 146.493 1.25648Z" fill="white"/>
<path d="M172.246 1.18688C177.258 0.838854 181.713 0.699646 185.541 0.699646C196.26 0.699646 201.62 4.24951 201.62 11.4189C201.62 14.4815 200.854 17.1265 199.392 19.5627C197.931 21.9292 195.355 23.5302 191.805 24.2958L204.822 44.1333H198.766L186.028 24.7135H177.676V44.1333H172.316V1.18688H172.246ZM185.611 1.25648C183.105 1.25648 180.46 1.3957 177.676 1.74372V23.9478H187.281C193.406 23.6694 196.469 19.5627 196.469 11.4885C196.469 8.21701 195.564 5.64162 193.754 3.90149C191.875 2.16136 189.16 1.25648 185.611 1.25648Z" fill="white"/>
</svg>
