<svg width="93" height="46" viewBox="0 0 93 46" fill="none" xmlns="http://www.w3.org/2000/svg">
<path d="M41.9083 32.3959V27.5931L28.1961 39.4956L28.1265 44.716L41.9083 32.3959Z" fill="white" stroke="#090909" stroke-width="0.3553" stroke-miterlimit="10"/>
<path d="M41.908 27.8019L37.2445 28.0108L26.1772 38.1731L28.2654 39.7044L41.908 27.8019Z" fill="white" stroke="#090909" stroke-width="0.3553" stroke-miterlimit="10"/>
<path d="M28.2651 39.4956L6.68744 23.3472L3.4856 25.7137L28.2651 44.4376V39.4956Z" fill="white" stroke="#090909" stroke-width="0.3553" stroke-miterlimit="10"/>
<path d="M28.2652 44.4375L24.0889 43.7415L3.20728 25.5049L28.2652 44.4375Z" fill="white" stroke="#090909" stroke-width="0.3553" stroke-miterlimit="10"/>
<path d="M3.62503 25.8531L0.84082 23.6953L24.437 6.71161H29.1005L3.62503 25.8531Z" fill="white" stroke="#090909" stroke-width="0.3553" stroke-miterlimit="10"/>
<path d="M3.69463 20.7718L0.84082 23.6952L24.437 6.71151L24.6458 1.42151L3.69463 20.7718Z" fill="white" stroke="#090909" stroke-width="0.3553" stroke-miterlimit="10"/>
<path d="M24.646 1.42151L50.3999 27.5931L29.7968 1.42151H24.646Z" fill="white" stroke="#090909" stroke-width="0.3553" stroke-miterlimit="10"/>
<path d="M24.437 6.7116C35.5739 15.9691 45.3882 25.853 52.9056 32.3263C63.3464 41.3054 71.1421 39.2869 71.2813 39.2173C64.3904 39.2173 58.8916 35.5282 53.88 30.7254C52.1399 29.0549 24.6458 1.49121 24.6458 1.49121L24.437 6.7116Z" fill="white" stroke="#090909" stroke-width="0.3553" stroke-miterlimit="10"/>
<path d="M69.0541 6.08503C69.0541 6.08503 79.7037 3.09201 86.1074 10.8878C92.5807 18.8228 88.6132 30.9341 87.9171 32.8134C84.3672 42.6278 67.8708 43.0454 66.8267 43.0454L65.2954 42.419C66.7571 43.3934 75.597 44.1591 80.7478 41.7229C84.9937 39.6348 92.6503 33.7183 91.9542 22.0942C91.1886 9.42608 79.7037 3.44003 69.0541 6.08503Z" fill="white" stroke="#090909" stroke-width="0.3553" stroke-miterlimit="10"/>
<path d="M89.657 20.4236C89.7266 20.9108 90.6315 35.7367 75.5272 38.7994C71.9773 39.4954 66.3393 39.4954 61.5365 37.2681C57.2906 35.2495 53.6015 32.9525 50.1908 29.8899L47.6851 27.5929C47.6851 27.5929 48.1027 27.8713 54.4368 35.1799C59.1003 40.5395 63.6247 43.2541 69.5411 43.7413C87.4297 45.3423 90.2835 28.5674 89.657 20.4236Z" fill="white" stroke="#090909" stroke-width="0.3553" stroke-miterlimit="10"/>
<path d="M68.3581 1.21267C58.4045 2.46556 55.2723 10.1221 54.7851 12.6975C54.2282 16.8738 58.7526 17.6395 59.8662 14.9945C61.0495 11.8623 65.7827 4.55372 76.9891 5.87622C83.2536 6.64187 90.1445 10.7486 91.8847 20.9806C92.3719 12.9063 85.2722 -0.875491 68.3581 1.21267Z" fill="white" stroke="#090909" stroke-width="0.3553" stroke-miterlimit="10"/>
</svg>
